# xmcd
#
# Track frame offsets: 
#        150
#        2588
#        13075
#        17113
#        27845
#        30550
#        40790
#        44695
#        52495
#        60137
#        62682
#        65857
#        70984
#        86477
#        89329
#        116996
#        122011
#        138866
#        143416
#        149043
#        155160
#        164648
#        168018
#        172648
#        183098
#        246360
#
# Disc length: 4165 seconds
#
# Revision: 6
# Processed by: cddbd v1.5.2PL0 Copyright (c) Steve Scherf et al.
# Submitted via: ExactAudioCopy v1.0b3
#
DISCID=6b10431a
DTITLE=Frédéric Chopin - Préludes op. 28 – Fantaisie et Krakowiak pour
DTITLE=piano et orchestre
DYEAR=1979
DGENRE=Romantique
TTITLE0=Prélude en ut majeur op. 28 n° 1 - Agitato
TTITLE1=Prélude en la mineur op. 28 n° 2 - Lento
TTITLE2=Prélude en sol majeur op. 28 n° 3 - Vivace
TTITLE3=Prélude en mi mineur op. 28 n° 4 - Largo
TTITLE4=Prélude en ré majeur op. 28 n° 5 - Allegro molto
TTITLE5=Prélude en si mineur op. 28 n° 6 - Lento assai
TTITLE6=Prélude en la majeur op. 28 n° 7 - Andantino
TTITLE7=Prélude en fa dièse mineur op. 28 n° 8 - Molto agitato
TTITLE8=Prélude en mi majeur op. 28 n° 9 - Largo
TTITLE9=Prélude en ut dièse mineur op. 28 n° 10 - Allegro molto
TTITLE10=Prélude en si majeur op. 28 n° 11 - Vivace
TTITLE11=Prélude en sol dièse mineur op. 28 n° 12 - Presto
TTITLE12=Prélude en fa dièse majeur op. 28 n° 13 - Lento
TTITLE13=Prélude en mi bémol mineur op. 28 n° 14 - Allegro
TTITLE14=Prélude en ré bémol majeur op. 28 n° 15 - Sostenuto
TTITLE15=Prélude en si bémol mineur op. 28 n° 16 - Presto con fuoco
TTITLE16=Prélude en la bémol majeur op. 28 n° 17 - Allegretto
TTITLE17=Prélude en fa mineur op. 28 n° 18 - Allegro molto
TTITLE18=Prélude en mi bémol majeur op. 28 n° 19 - Vivace
TTITLE19=Prélude en ut mineur op. 28 n° 20 - Largo
TTITLE20=Prélude en si bémol majeur op. 28 n° 21 - Cantabile
TTITLE21=Prélude en sol mineur op. 28 n° 22 - Molto agitato
TTITLE22=Prélude en fa majeur op. 28 n° 23 - Moderato
TTITLE23=Prélude en en ré mineur op. 28 n° 24 - Allegro appassionato
TTITLE24=Fantaisie p. P et o. sur des airs polonais en la M op. 13 (Mi
TTITLE24=sha Dichter - Philharmonia Orch. - Marriner 1984)
TTITLE25=Rondeau à la Krakowiak pour P et o. en fa majeur op. 14 (Bell
TTITLE25=a Davidovich - LSO - Neville Marriner 1982)
EXTD=YEAR: 1979
EXTT0=
EXTT1=
EXTT2=
EXTT3=
EXTT4=
EXTT5=
EXTT6=
EXTT7=
EXTT8=
EXTT9=
EXTT10=
EXTT11=
EXTT12=
EXTT13=
EXTT14=
EXTT15=
EXTT16=
EXTT17=
EXTT18=
EXTT19=
EXTT20=
EXTT21=
EXTT22=
EXTT23=
EXTT24=
EXTT25=
PLAYORDER=
